<mxfile host="app.diagrams.net" agent="Mozilla/5.0 (Windows NT 10.0; Win64; x64) AppleWebKit/537.36 (KHTML, like Gecko) Chrome/127.0.0.0 Safari/537.36" version="24.7.6">
  <diagram name="Page-1" id="Mt0bgplxy29TK5hpBH-r">
    <mxGraphModel dx="880" dy="1534" grid="1" gridSize="10" guides="1" tooltips="1" connect="1" arrows="1" fold="1" page="1" pageScale="1" pageWidth="850" pageHeight="1100" math="0" shadow="0">
      <root>
        <mxCell id="0" />
        <mxCell id="1" parent="0" />
        <mxCell id="23CGely90KWypuvK8jA6-35" style="edgeStyle=orthogonalEdgeStyle;rounded=0;orthogonalLoop=1;jettySize=auto;html=1;" parent="1" source="23CGely90KWypuvK8jA6-1" target="23CGely90KWypuvK8jA6-11" edge="1">
          <mxGeometry relative="1" as="geometry">
            <mxPoint x="320" y="70" as="targetPoint" />
            <Array as="points">
              <mxPoint x="290" y="70" />
              <mxPoint x="290" y="70" />
            </Array>
          </mxGeometry>
        </mxCell>
        <mxCell id="23CGely90KWypuvK8jA6-43" style="edgeStyle=orthogonalEdgeStyle;rounded=0;orthogonalLoop=1;jettySize=auto;html=1;entryX=0;entryY=0.5;entryDx=0;entryDy=0;" parent="1" source="23CGely90KWypuvK8jA6-1" target="23CGely90KWypuvK8jA6-5" edge="1">
          <mxGeometry relative="1" as="geometry">
            <mxPoint x="150" y="210" as="targetPoint" />
            <Array as="points">
              <mxPoint x="120" y="200" />
            </Array>
          </mxGeometry>
        </mxCell>
        <mxCell id="23CGely90KWypuvK8jA6-52" style="edgeStyle=orthogonalEdgeStyle;rounded=0;orthogonalLoop=1;jettySize=auto;html=1;entryX=0;entryY=0;entryDx=0;entryDy=0;" parent="1" source="23CGely90KWypuvK8jA6-1" edge="1">
          <mxGeometry relative="1" as="geometry">
            <mxPoint x="330" y="280" as="targetPoint" />
            <Array as="points">
              <mxPoint x="90" y="280" />
            </Array>
          </mxGeometry>
        </mxCell>
        <mxCell id="23CGely90KWypuvK8jA6-72" style="edgeStyle=orthogonalEdgeStyle;rounded=0;orthogonalLoop=1;jettySize=auto;html=1;entryX=0;entryY=0.25;entryDx=0;entryDy=0;" parent="1" source="23CGely90KWypuvK8jA6-1" target="23CGely90KWypuvK8jA6-9" edge="1">
          <mxGeometry relative="1" as="geometry">
            <mxPoint x="90" y="-100" as="targetPoint" />
            <Array as="points">
              <mxPoint x="90" y="-92" />
              <mxPoint x="233" y="-92" />
            </Array>
          </mxGeometry>
        </mxCell>
        <mxCell id="MvqgQ1poG5gPwRP9fCwn-2" style="edgeStyle=orthogonalEdgeStyle;rounded=0;orthogonalLoop=1;jettySize=auto;html=1;" parent="1" source="23CGely90KWypuvK8jA6-1" target="23CGely90KWypuvK8jA6-10" edge="1">
          <mxGeometry relative="1" as="geometry">
            <Array as="points">
              <mxPoint x="250" y="30" />
              <mxPoint x="250" y="30" />
            </Array>
          </mxGeometry>
        </mxCell>
        <mxCell id="23CGely90KWypuvK8jA6-1" value="Khách hàng" style="rounded=0;whiteSpace=wrap;html=1;" parent="1" vertex="1">
          <mxGeometry x="30" y="20" width="120" height="60" as="geometry" />
        </mxCell>
        <mxCell id="23CGely90KWypuvK8jA6-4" value="1.4" style="swimlane;fontStyle=0;childLayout=stackLayout;horizontal=1;startSize=20;fillColor=#ffffff;horizontalStack=0;resizeParent=1;resizeParentMax=0;resizeLast=0;collapsible=0;marginBottom=0;swimlaneFillColor=#ffffff;rounded=1;shadow=0;swimlaneLine=1;rotation=0;" parent="1" vertex="1">
          <mxGeometry x="330" y="160" width="120" height="60" as="geometry" />
        </mxCell>
        <mxCell id="23CGely90KWypuvK8jA6-5" value="Theo dõi hợp đồng và thông báo gia hạn&amp;nbsp;" style="text;html=1;align=center;verticalAlign=middle;whiteSpace=wrap;rounded=0;" parent="23CGely90KWypuvK8jA6-4" vertex="1">
          <mxGeometry y="20" width="120" height="40" as="geometry" />
        </mxCell>
        <mxCell id="eYSj_euJ29Wh_YkYOU1f-24" style="edgeStyle=orthogonalEdgeStyle;rounded=0;orthogonalLoop=1;jettySize=auto;html=1;entryX=0.5;entryY=1;entryDx=0;entryDy=0;" edge="1" parent="1" source="23CGely90KWypuvK8jA6-6" target="23CGely90KWypuvK8jA6-19">
          <mxGeometry relative="1" as="geometry">
            <Array as="points">
              <mxPoint x="760" y="300" />
              <mxPoint x="760" y="65" />
            </Array>
          </mxGeometry>
        </mxCell>
        <mxCell id="23CGely90KWypuvK8jA6-6" value="1.1" style="swimlane;fontStyle=0;childLayout=stackLayout;horizontal=1;startSize=20;fillColor=#ffffff;horizontalStack=0;resizeParent=1;resizeParentMax=0;resizeLast=0;collapsible=0;marginBottom=0;swimlaneFillColor=#ffffff;rounded=1;shadow=0;swimlaneLine=1;rotation=0;" parent="1" vertex="1">
          <mxGeometry x="330" y="260" width="110" height="50" as="geometry" />
        </mxCell>
        <mxCell id="23CGely90KWypuvK8jA6-7" value="Đăng kí và đăng nhập tài khoản" style="text;html=1;align=center;verticalAlign=middle;whiteSpace=wrap;rounded=0;" parent="23CGely90KWypuvK8jA6-6" vertex="1">
          <mxGeometry y="20" width="110" height="30" as="geometry" />
        </mxCell>
        <mxCell id="23CGely90KWypuvK8jA6-84" style="edgeStyle=orthogonalEdgeStyle;rounded=0;orthogonalLoop=1;jettySize=auto;html=1;entryX=0.34;entryY=-0.043;entryDx=0;entryDy=0;entryPerimeter=0;" parent="1" source="23CGely90KWypuvK8jA6-8" target="23CGely90KWypuvK8jA6-1" edge="1">
          <mxGeometry relative="1" as="geometry">
            <mxPoint x="60" y="10" as="targetPoint" />
            <Array as="points">
              <mxPoint x="71" y="-120" />
            </Array>
          </mxGeometry>
        </mxCell>
        <mxCell id="23CGely90KWypuvK8jA6-8" value="1.3" style="swimlane;fontStyle=0;childLayout=stackLayout;horizontal=1;startSize=20;fillColor=#ffffff;horizontalStack=0;resizeParent=1;resizeParentMax=0;resizeLast=0;collapsible=0;marginBottom=0;swimlaneFillColor=#ffffff;rounded=1;shadow=0;swimlaneLine=1;rotation=0;" parent="1" vertex="1">
          <mxGeometry x="315" y="-120" width="170" height="50" as="geometry" />
        </mxCell>
        <mxCell id="23CGely90KWypuvK8jA6-9" value="Thông báo xác nhận và bàn giao phòng" style="text;html=1;align=center;verticalAlign=middle;whiteSpace=wrap;rounded=0;" parent="23CGely90KWypuvK8jA6-8" vertex="1">
          <mxGeometry y="20" width="170" height="30" as="geometry" />
        </mxCell>
        <mxCell id="23CGely90KWypuvK8jA6-34" style="edgeStyle=orthogonalEdgeStyle;rounded=0;orthogonalLoop=1;jettySize=auto;html=1;entryX=0.774;entryY=-0.069;entryDx=0;entryDy=0;entryPerimeter=0;" parent="1" source="23CGely90KWypuvK8jA6-10" target="23CGely90KWypuvK8jA6-1" edge="1">
          <mxGeometry relative="1" as="geometry">
            <mxPoint x="120" y="-20" as="targetPoint" />
            <Array as="points">
              <mxPoint x="400" y="-20" />
              <mxPoint x="123" y="-20" />
            </Array>
          </mxGeometry>
        </mxCell>
        <mxCell id="eYSj_euJ29Wh_YkYOU1f-27" style="edgeStyle=orthogonalEdgeStyle;rounded=0;orthogonalLoop=1;jettySize=auto;html=1;entryX=0;entryY=1;entryDx=0;entryDy=0;" edge="1" parent="1" source="23CGely90KWypuvK8jA6-10" target="23CGely90KWypuvK8jA6-20">
          <mxGeometry relative="1" as="geometry">
            <Array as="points">
              <mxPoint x="405" y="120" />
              <mxPoint x="860" y="120" />
            </Array>
          </mxGeometry>
        </mxCell>
        <mxCell id="eYSj_euJ29Wh_YkYOU1f-28" style="edgeStyle=orthogonalEdgeStyle;rounded=0;orthogonalLoop=1;jettySize=auto;html=1;entryX=0;entryY=0;entryDx=0;entryDy=0;" edge="1" parent="1" source="23CGely90KWypuvK8jA6-10" target="23CGely90KWypuvK8jA6-19">
          <mxGeometry relative="1" as="geometry">
            <Array as="points">
              <mxPoint x="430" y="-20" />
              <mxPoint x="730" y="-20" />
            </Array>
          </mxGeometry>
        </mxCell>
        <mxCell id="23CGely90KWypuvK8jA6-10" value="1.2" style="swimlane;fontStyle=0;childLayout=stackLayout;horizontal=1;startSize=20;fillColor=#ffffff;horizontalStack=0;resizeParent=1;resizeParentMax=0;resizeLast=0;collapsible=0;marginBottom=0;swimlaneFillColor=#ffffff;rounded=1;shadow=0;swimlaneLine=1;rotation=0;" parent="1" vertex="1">
          <mxGeometry x="330" y="25" width="150" height="50" as="geometry" />
        </mxCell>
        <mxCell id="23CGely90KWypuvK8jA6-38" style="edgeStyle=orthogonalEdgeStyle;rounded=0;orthogonalLoop=1;jettySize=auto;html=1;exitX=0;exitY=0;exitDx=0;exitDy=0;" parent="23CGely90KWypuvK8jA6-10" source="23CGely90KWypuvK8jA6-11" edge="1">
          <mxGeometry relative="1" as="geometry">
            <mxPoint x="-0.14285714285711038" y="20.28571428571422" as="targetPoint" />
          </mxGeometry>
        </mxCell>
        <mxCell id="23CGely90KWypuvK8jA6-11" value="Lập hợp đồng thuê nhà, phiếu tạm trú" style="text;html=1;align=center;verticalAlign=middle;whiteSpace=wrap;rounded=0;" parent="23CGely90KWypuvK8jA6-10" vertex="1">
          <mxGeometry y="20" width="150" height="30" as="geometry" />
        </mxCell>
        <mxCell id="eYSj_euJ29Wh_YkYOU1f-16" style="edgeStyle=orthogonalEdgeStyle;rounded=0;orthogonalLoop=1;jettySize=auto;html=1;entryX=1;entryY=0.25;entryDx=0;entryDy=0;" edge="1" parent="1" source="23CGely90KWypuvK8jA6-15" target="23CGely90KWypuvK8jA6-11">
          <mxGeometry relative="1" as="geometry">
            <Array as="points">
              <mxPoint x="530" y="53" />
            </Array>
          </mxGeometry>
        </mxCell>
        <mxCell id="eYSj_euJ29Wh_YkYOU1f-30" style="edgeStyle=orthogonalEdgeStyle;rounded=0;orthogonalLoop=1;jettySize=auto;html=1;entryX=1;entryY=0.75;entryDx=0;entryDy=0;" edge="1" parent="1" source="23CGely90KWypuvK8jA6-15" target="23CGely90KWypuvK8jA6-9">
          <mxGeometry relative="1" as="geometry">
            <Array as="points">
              <mxPoint x="660" y="-77" />
            </Array>
          </mxGeometry>
        </mxCell>
        <mxCell id="23CGely90KWypuvK8jA6-15" value="a" style="html=1;dashed=0;whiteSpace=wrap;shape=mxgraph.dfd.dataStoreID;align=left;spacingLeft=3;points=[[0,0],[0.5,0],[1,0],[0,0.5],[1,0.5],[0,1],[0.5,1],[1,1]];" parent="1" vertex="1">
          <mxGeometry x="580" y="35" width="100" height="30" as="geometry" />
        </mxCell>
        <mxCell id="eYSj_euJ29Wh_YkYOU1f-21" style="edgeStyle=orthogonalEdgeStyle;rounded=0;orthogonalLoop=1;jettySize=auto;html=1;entryX=1;entryY=0.25;entryDx=0;entryDy=0;" edge="1" parent="1" source="23CGely90KWypuvK8jA6-16" target="23CGely90KWypuvK8jA6-8">
          <mxGeometry relative="1" as="geometry">
            <Array as="points">
              <mxPoint x="750" y="-107" />
              <mxPoint x="593" y="-107" />
            </Array>
          </mxGeometry>
        </mxCell>
        <mxCell id="eYSj_euJ29Wh_YkYOU1f-26" style="edgeStyle=orthogonalEdgeStyle;rounded=0;orthogonalLoop=1;jettySize=auto;html=1;entryX=1;entryY=0.25;entryDx=0;entryDy=0;" edge="1" parent="1" source="23CGely90KWypuvK8jA6-16" target="23CGely90KWypuvK8jA6-6">
          <mxGeometry relative="1" as="geometry">
            <Array as="points">
              <mxPoint x="720" y="273" />
            </Array>
          </mxGeometry>
        </mxCell>
        <mxCell id="23CGely90KWypuvK8jA6-16" value="b" style="html=1;dashed=0;whiteSpace=wrap;shape=mxgraph.dfd.dataStoreID;align=left;spacingLeft=3;points=[[0,0],[0.5,0],[1,0],[0,0.5],[1,0.5],[0,1],[0.5,1],[1,1]];" parent="1" vertex="1">
          <mxGeometry x="700" y="35" width="100" height="30" as="geometry" />
        </mxCell>
        <mxCell id="eYSj_euJ29Wh_YkYOU1f-19" style="edgeStyle=orthogonalEdgeStyle;rounded=0;orthogonalLoop=1;jettySize=auto;html=1;entryX=1;entryY=0.5;entryDx=0;entryDy=0;" edge="1" parent="1" source="23CGely90KWypuvK8jA6-17" target="23CGely90KWypuvK8jA6-5">
          <mxGeometry relative="1" as="geometry">
            <Array as="points">
              <mxPoint x="890" y="200" />
            </Array>
          </mxGeometry>
        </mxCell>
        <mxCell id="eYSj_euJ29Wh_YkYOU1f-20" style="edgeStyle=orthogonalEdgeStyle;rounded=0;orthogonalLoop=1;jettySize=auto;html=1;entryX=1;entryY=0.25;entryDx=0;entryDy=0;" edge="1" parent="1" source="23CGely90KWypuvK8jA6-17" target="23CGely90KWypuvK8jA6-9">
          <mxGeometry relative="1" as="geometry">
            <Array as="points">
              <mxPoint x="870" y="-92" />
              <mxPoint x="653" y="-92" />
            </Array>
          </mxGeometry>
        </mxCell>
        <mxCell id="23CGely90KWypuvK8jA6-17" value="c" style="html=1;dashed=0;whiteSpace=wrap;shape=mxgraph.dfd.dataStoreID;align=left;spacingLeft=3;points=[[0,0],[0.5,0],[1,0],[0,0.5],[1,0.5],[0,1],[0.5,1],[1,1]];" parent="1" vertex="1">
          <mxGeometry x="820" y="35" width="100" height="30" as="geometry" />
        </mxCell>
        <mxCell id="23CGely90KWypuvK8jA6-18" value="Danh sách nhà" style="text;html=1;align=center;verticalAlign=middle;whiteSpace=wrap;rounded=0;" parent="1" vertex="1">
          <mxGeometry x="610" y="35" width="70" height="30" as="geometry" />
        </mxCell>
        <mxCell id="23CGely90KWypuvK8jA6-19" value="Danh sách khách hàng" style="text;html=1;align=center;verticalAlign=middle;whiteSpace=wrap;rounded=0;" parent="1" vertex="1">
          <mxGeometry x="730" y="35" width="70" height="30" as="geometry" />
        </mxCell>
        <mxCell id="23CGely90KWypuvK8jA6-20" value="Danh sách hợp đồng" style="text;html=1;align=center;verticalAlign=middle;whiteSpace=wrap;rounded=0;" parent="1" vertex="1">
          <mxGeometry x="860" y="35" width="60" height="30" as="geometry" />
        </mxCell>
        <mxCell id="23CGely90KWypuvK8jA6-22" value="&lt;span style=&quot;font-size: 9px;&quot;&gt;Yêu cầu thuê nhà&lt;/span&gt;" style="text;html=1;align=center;verticalAlign=middle;whiteSpace=wrap;rounded=0;" parent="1" vertex="1">
          <mxGeometry x="160" y="10" width="130" height="10" as="geometry" />
        </mxCell>
        <mxCell id="23CGely90KWypuvK8jA6-32" style="edgeStyle=orthogonalEdgeStyle;rounded=0;orthogonalLoop=1;jettySize=auto;html=1;entryX=0.854;entryY=1;entryDx=0;entryDy=0;entryPerimeter=0;" parent="1" source="23CGely90KWypuvK8jA6-11" target="23CGely90KWypuvK8jA6-1" edge="1">
          <mxGeometry relative="1" as="geometry">
            <mxPoint x="130" y="120" as="targetPoint" />
            <Array as="points">
              <mxPoint x="360" y="120" />
              <mxPoint x="133" y="120" />
            </Array>
          </mxGeometry>
        </mxCell>
        <mxCell id="23CGely90KWypuvK8jA6-33" value="&lt;font style=&quot;font-size: 10px;&quot;&gt;Thông báo không còn phòng&lt;/font&gt;" style="text;html=1;align=center;verticalAlign=middle;whiteSpace=wrap;rounded=0;" parent="1" vertex="1">
          <mxGeometry x="185" y="95" width="135" height="25" as="geometry" />
        </mxCell>
        <mxCell id="23CGely90KWypuvK8jA6-39" value="&lt;font size=&quot;1&quot;&gt;Giấy tờ, CCCD&lt;/font&gt;" style="text;html=1;align=center;verticalAlign=middle;whiteSpace=wrap;rounded=0;" parent="1" vertex="1">
          <mxGeometry x="160" y="50" width="130" height="15" as="geometry" />
        </mxCell>
        <mxCell id="23CGely90KWypuvK8jA6-40" value="&lt;font size=&quot;1&quot;&gt;Hợp đồng, Tạm trú&lt;/font&gt;" style="text;html=1;align=center;verticalAlign=middle;whiteSpace=wrap;rounded=0;" parent="1" vertex="1">
          <mxGeometry x="170" y="-40" width="130" height="20" as="geometry" />
        </mxCell>
        <mxCell id="23CGely90KWypuvK8jA6-45" value="&lt;font style=&quot;font-size: 10px;&quot;&gt;Yêu cầu gia hạn hợp đồng&lt;/font&gt;" style="text;html=1;align=center;verticalAlign=middle;whiteSpace=wrap;rounded=0;" parent="1" vertex="1">
          <mxGeometry x="160" y="180" width="120" height="15" as="geometry" />
        </mxCell>
        <mxCell id="23CGely90KWypuvK8jA6-46" value="&lt;font size=&quot;1&quot;&gt;Kiểm tra hợp đồng&lt;/font&gt;" style="text;html=1;align=center;verticalAlign=middle;whiteSpace=wrap;rounded=0;" parent="1" vertex="1">
          <mxGeometry x="520" y="177.5" width="120" height="25" as="geometry" />
        </mxCell>
        <mxCell id="23CGely90KWypuvK8jA6-49" style="edgeStyle=orthogonalEdgeStyle;rounded=0;orthogonalLoop=1;jettySize=auto;html=1;entryX=0.308;entryY=1.04;entryDx=0;entryDy=0;entryPerimeter=0;exitX=0.521;exitY=0.963;exitDx=0;exitDy=0;exitPerimeter=0;" parent="1" source="23CGely90KWypuvK8jA6-5" edge="1">
          <mxGeometry relative="1" as="geometry">
            <mxPoint x="100.00000000000004" y="80.00000000000009" as="targetPoint" />
            <mxPoint x="423.03999999999996" y="217.6" as="sourcePoint" />
            <Array as="points">
              <mxPoint x="390" y="219" />
              <mxPoint x="390" y="240" />
              <mxPoint x="100" y="240" />
            </Array>
          </mxGeometry>
        </mxCell>
        <mxCell id="23CGely90KWypuvK8jA6-50" value="&lt;font size=&quot;1&quot;&gt;Gia hạn hợp đồng&lt;/font&gt;" style="text;html=1;align=center;verticalAlign=middle;whiteSpace=wrap;rounded=0;" parent="1" vertex="1">
          <mxGeometry x="130" y="220" width="120" height="15" as="geometry" />
        </mxCell>
        <mxCell id="23CGely90KWypuvK8jA6-53" value="&lt;font size=&quot;1&quot;&gt;Đăng nhập, đăng ký&lt;/font&gt;" style="text;html=1;align=center;verticalAlign=middle;whiteSpace=wrap;rounded=0;" parent="1" vertex="1">
          <mxGeometry x="100" y="260" width="120" height="15" as="geometry" />
        </mxCell>
        <mxCell id="23CGely90KWypuvK8jA6-55" value="&lt;font style=&quot;font-size: 10px;&quot;&gt;Thông tin khách&lt;/font&gt;" style="text;html=1;align=center;verticalAlign=middle;whiteSpace=wrap;rounded=0;" parent="1" vertex="1">
          <mxGeometry x="550" y="-40" width="110" height="20" as="geometry" />
        </mxCell>
        <mxCell id="23CGely90KWypuvK8jA6-62" style="edgeStyle=orthogonalEdgeStyle;rounded=0;orthogonalLoop=1;jettySize=auto;html=1;entryX=0.322;entryY=1.026;entryDx=0;entryDy=0;entryPerimeter=0;" parent="1" source="23CGely90KWypuvK8jA6-7" target="23CGely90KWypuvK8jA6-1" edge="1">
          <mxGeometry relative="1" as="geometry">
            <mxPoint x="70" y="295" as="targetPoint" />
            <Array as="points">
              <mxPoint x="69" y="310" />
            </Array>
          </mxGeometry>
        </mxCell>
        <mxCell id="23CGely90KWypuvK8jA6-64" value="&lt;font size=&quot;1&quot;&gt;Cho đăng nhập&lt;/font&gt;" style="text;html=1;align=center;verticalAlign=middle;whiteSpace=wrap;rounded=0;" parent="1" vertex="1">
          <mxGeometry x="110" y="290" width="120" height="20" as="geometry" />
        </mxCell>
        <mxCell id="23CGely90KWypuvK8jA6-67" style="edgeStyle=orthogonalEdgeStyle;rounded=0;orthogonalLoop=1;jettySize=auto;html=1;entryX=0.167;entryY=1;entryDx=0;entryDy=0;entryPerimeter=0;" parent="1" source="23CGely90KWypuvK8jA6-7" target="23CGely90KWypuvK8jA6-1" edge="1">
          <mxGeometry relative="1" as="geometry">
            <mxPoint x="50" y="110" as="targetPoint" />
            <Array as="points">
              <mxPoint x="390" y="340" />
              <mxPoint x="50" y="340" />
            </Array>
          </mxGeometry>
        </mxCell>
        <mxCell id="23CGely90KWypuvK8jA6-73" value="&lt;font size=&quot;1&quot;&gt;Yêu cầu bàn giao phòng&lt;/font&gt;" style="text;html=1;align=center;verticalAlign=middle;whiteSpace=wrap;rounded=0;" parent="1" vertex="1">
          <mxGeometry x="120" y="-110" width="130" height="20" as="geometry" />
        </mxCell>
        <mxCell id="23CGely90KWypuvK8jA6-85" value="&lt;font style=&quot;font-size: 9px;&quot;&gt;Bàn giao phòng&lt;/font&gt;" style="text;html=1;align=center;verticalAlign=middle;whiteSpace=wrap;rounded=0;" parent="1" vertex="1">
          <mxGeometry x="110" y="-140" width="130" height="20" as="geometry" />
        </mxCell>
      </root>
    </mxGraphModel>
  </diagram>
</mxfile>
